<svg xmlns="http://www.w3.org/2000/svg" width="340" height="200" viewBox="0 0 340 200"><style>* {
          font-family: 'Segoe UI', Ubuntu, "Helvetica Neue", Sans-Serif
        }</style><rect x="1" y="1" rx="5" ry="5" height="99%" width="99.41176470588235%" stroke="#1a1b27" stroke-width="1" fill="#1a1b27" stroke-opacity="1"></rect><text x="30" y="40" style="font-size: 22px; fill: #70a5fd;">Top Languages by Commit</text><g transform="translate(0,40)"><g transform="translate(40,0)"><rect y="18" width="14" height="14" fill="#DA5B0B" stroke="#1a1b27" style="stroke-width: 1px;"></rect><rect y="43.2" width="14" height="14" fill="#f1e05a" stroke="#1a1b27" style="stroke-width: 1px;"></rect><rect y="68.4" width="14" height="14" fill="#3572A5" stroke="#1a1b27" style="stroke-width: 1px;"></rect><rect y="93.60000000000002" width="14" height="14" fill="#3D6117" stroke="#1a1b27" style="stroke-width: 1px;"></rect><rect y="118.80000000000001" width="14" height="14" fill="#3178c6" stroke="#1a1b27" style="stroke-width: 1px;"></rect><text x="16.8" y="30" style="fill: #38bdae; font-size: 14px;">Jupyter Notebook</text><text x="16.8" y="55.2" style="fill: #38bdae; font-size: 14px;">JavaScript</text><text x="16.8" y="80.4" style="fill: #38bdae; font-size: 14px;">Python</text><text x="16.8" y="105.60000000000002" style="fill: #38bdae; font-size: 14px;">TeX</text><text x="16.8" y="130.8" style="fill: #38bdae; font-size: 14px;">TypeScript</text></g><g transform="translate( 230, 80 )"><g class="arc"><path d="M3.67394039744206e-15,-60A60,60,0,0,1,1.4171280536878639,59.98326223272164L0.8266580313179206,34.99023630242096A35,35,0,0,0,2.1431318985078682e-15,-35Z" style="fill: #DA5B0B; stroke-width: 2px;" stroke="#1a1b27"></path></g><g class="arc"><path d="M1.4171280536878639,59.98326223272164A60,60,0,0,1,-59.9623422123891,2.1254449897232233L-34.97803295722698,1.2398429106718802A35,35,0,0,0,0.8266580313179206,34.99023630242096Z" style="fill: #f1e05a; stroke-width: 2px;" stroke="#1a1b27"></path></g><g class="arc"><path d="M-59.9623422123891,2.1254449897232233A60,60,0,0,1,-39.047648672207615,-45.55525362866332L-22.777795058787774,-26.573897950053606A35,35,0,0,0,-34.97803295722698,1.2398429106718802Z" style="fill: #3572A5; stroke-width: 2px;" stroke="#1a1b27"></path></g><g class="arc"><path d="M-39.047648672207615,-45.55525362866332A60,60,0,0,1,-14.041171908177748,-58.33391373330783L-8.190683613103687,-34.02811634442957A35,35,0,0,0,-22.777795058787774,-26.573897950053606Z" style="fill: #3D6117; stroke-width: 2px;" stroke="#1a1b27"></path></g><g class="arc"><path d="M-14.041171908177748,-58.33391373330783A60,60,0,0,1,-1.1021821192326178e-14,-60L-6.429395695523604e-15,-35A35,35,0,0,0,-8.190683613103687,-34.02811634442957Z" style="fill: #3178c6; stroke-width: 2px;" stroke="#1a1b27"></path></g></g></g></svg>