<svg xmlns="http://www.w3.org/2000/svg" width="1280" height="360" viewBox="0 0 1280 360" role="img" aria-label="Yun Shen GitHub profile banner">
  <defs>
    <linearGradient id="bg" x1="0" y1="0" x2="1" y2="1">
      <stop offset="0%" stop-color="#0f172a"/>
      <stop offset="50%" stop-color="#1e293b"/>
      <stop offset="100%" stop-color="#2563eb"/>
    </linearGradient>
    <linearGradient id="accent" x1="0" y1="0" x2="1" y2="0">
      <stop offset="0%" stop-color="#38bdf8"/>
      <stop offset="100%" stop-color="#a78bfa"/>
    </linearGradient>
    <filter id="blur"><feGaussianBlur stdDeviation="36" /></filter>
  </defs>

  <rect width="1280" height="360" fill="url(#bg)" rx="28"/>

  <circle cx="1100" cy="70" r="120" fill="#38bdf8" opacity="0.22" filter="url(#blur)"/>
  <circle cx="980" cy="280" r="140" fill="#a78bfa" opacity="0.18" filter="url(#blur)"/>
  <circle cx="220" cy="40" r="90" fill="#60a5fa" opacity="0.14" filter="url(#blur)"/>

  <g opacity="0.12" stroke="#e2e8f0" fill="none">
    <path d="M910 65 H1180" />
    <path d="M910 95 H1180" />
    <path d="M910 125 H1180" />
    <path d="M910 155 H1180" />
    <path d="M910 185 H1180" />
    <path d="M910 215 H1180" />
    <path d="M930 55 V235" />
    <path d="M990 55 V235" />
    <path d="M1050 55 V235" />
    <path d="M1110 55 V235" />
  </g>

  <rect x="72" y="66" width="8" height="228" rx="4" fill="url(#accent)"/>

  <text x="108" y="128" fill="#f8fafc" font-size="54" font-family="Segoe UI, Inter, Arial, sans-serif" font-weight="700">
    Yun Shen
  </text>
  <text x="108" y="176" fill="#cbd5e1" font-size="24" font-family="Segoe UI, Inter, Arial, sans-serif">
    AI · Open Source · Writing
  </text>
  <text x="108" y="222" fill="#e2e8f0" font-size="22" font-family="Segoe UI, Inter, Arial, sans-serif">
    Graduate student at UESTC building practical tools and documenting growth.
  </text>

  <g transform="translate(108 258)">
    <rect width="150" height="36" rx="18" fill="#111827" opacity="0.88"/>
    <text x="20" y="24" fill="#f8fafc" font-size="16" font-family="Segoe UI, Inter, Arial, sans-serif">Chengdu, China</text>
  </g>
  <g transform="translate(274 258)">
    <rect width="154" height="36" rx="18" fill="#111827" opacity="0.88"/>
    <text x="20" y="24" fill="#f8fafc" font-size="16" font-family="Segoe UI, Inter, Arial, sans-serif">UESTC AI Master</text>
  </g>
  <g transform="translate(444 258)">
    <rect width="130" height="36" rx="18" fill="#111827" opacity="0.88"/>
    <text x="20" y="24" fill="#f8fafc" font-size="16" font-family="Segoe UI, Inter, Arial, sans-serif">Blogging</text>
  </g>
</svg>
